HIERARCHY
ROOT Hips
{
	OFFSET	0.00	0.00	0.00
	CHANNELS 6 Xposition Yposition Zposition Zrotation Xrotation Yrotation
	JOINT LeftUpLeg
	{
		OFFSET	 0.126116	-0.014019	-0.065224
		CHANNELS 3 Zrotation Xrotation Yrotation
		JOINT LeftLeg
		{
			OFFSET	 0.000000	 0.000000	 0.569914
			CHANNELS 3 Zrotation Xrotation Yrotation
			JOINT LeftFoot
			{
				OFFSET	 0.000000	 0.000000	 0.544423
				CHANNELS 3 Zrotation Xrotation Yrotation
				JOINT LeftToeBase
				{
					OFFSET	 0.000000	 0.000000	 0.207117
					CHANNELS 3 Zrotation Xrotation Yrotation
					End Site
					{
						OFFSET	 0.000000	 0.000000	 0.207117
					}
				}
			}
		}
	}
	JOINT RightUpLeg
	{
		OFFSET	-0.124023	-0.008373	-0.065224
		CHANNELS 3 Zrotation Xrotation Yrotation
		JOINT RightLeg
		{
			OFFSET	 0.000000	 0.000000	 0.570047
			CHANNELS 3 Zrotation Xrotation Yrotation
			JOINT RightFoot
			{
				OFFSET	 0.000000	 0.000000	 0.544354
				CHANNELS 3 Zrotation Xrotation Yrotation
				JOINT RightToeBase
				{
					OFFSET	 0.000000	 0.000000	 0.207540
					CHANNELS 3 Zrotation Xrotation Yrotation
					End Site
					{
						OFFSET	 0.000000	 0.000000	 0.207540
					}
				}
			}
		}
	}
	JOINT Spine
	{
		OFFSET	 0.000184	-0.007763	 0.117403
		CHANNELS 3 Zrotation Xrotation Yrotation
		JOINT Spine1
		{
			OFFSET	 0.000000	 0.000000	 0.137269
			CHANNELS 3 Zrotation Xrotation Yrotation
			JOINT Spine2
			{
				OFFSET	 0.000000	 0.000000	 0.156879
				CHANNELS 3 Zrotation Xrotation Yrotation
				JOINT LeftShoulder
				{
					OFFSET	 0.080501	-0.002496	 0.160144
					CHANNELS 3 Zrotation Xrotation Yrotation
					JOINT LeftArm
					{
						OFFSET	 0.000000	 0.000000	 0.164363
						CHANNELS 3 Zrotation Xrotation Yrotation
						JOINT LeftForeArm
						{
							OFFSET	 0.000000	 0.000000	 0.364576
							CHANNELS 3 Zrotation Xrotation Yrotation
							JOINT LeftHand
							{
								OFFSET	 0.000000	 0.000000	 0.360812
								CHANNELS 3 Zrotation Xrotation Yrotation
								JOINT LeftHandIndex1
								{
									OFFSET	 0.000000	 0.000000	 0.086006
									CHANNELS 3 Zrotation Xrotation Yrotation
									JOINT LeftHandIndex2
									{
										OFFSET	 0.000000	 0.000000	 0.047236
										CHANNELS 3 Zrotation Xrotation Yrotation
										JOINT LeftHandIndex3
										{
											OFFSET	-0.004284	-0.000551	 0.038166
											CHANNELS 3 Zrotation Xrotation Yrotation
											End Site
											{
												OFFSET	-0.004284	-0.000551	 0.038166
											}
										}
									}
								}
							}
						}
					}
				}
				JOINT Neck
				{
					OFFSET	 0.000000	 0.000000	 0.176489
					CHANNELS 3 Zrotation Xrotation Yrotation
					JOINT Head
					{
						OFFSET	 0.000000	-0.001747	 0.077940
						CHANNELS 3 Zrotation Xrotation Yrotation
						End Site
						{
							OFFSET	 0.000000	-0.001747	 0.077940
						}
					}
				}
				JOINT RightShoulder
				{
					OFFSET	-0.080363	 0.000306	 0.159706
					CHANNELS 3 Zrotation Xrotation Yrotation
					JOINT RightArm
					{
						OFFSET	 0.000000	 0.000000	 0.164196
						CHANNELS 3 Zrotation Xrotation Yrotation
						JOINT RightForeArm
						{
							OFFSET	 0.000000	 0.000000	 0.365611
							CHANNELS 3 Zrotation Xrotation Yrotation
							JOINT RightHand
							{
								OFFSET	 0.000000	 0.000000	 0.360648
								CHANNELS 3 Zrotation Xrotation Yrotation
								JOINT RightHandIndex1
								{
									OFFSET	 0.000000	 0.000000	 0.069977
									CHANNELS 3 Zrotation Xrotation Yrotation
									JOINT RightHandIndex2
									{
										OFFSET	 0.000000	 0.000000	 0.052305
										CHANNELS 3 Zrotation Xrotation Yrotation
										JOINT RightHandIndex3
										{
											OFFSET	 0.009002	-0.000782	 0.042196
											CHANNELS 3 Zrotation Xrotation Yrotation
											End Site
											{
												OFFSET	 0.009002	-0.000782	 0.042196
											}
										}
									}
								}
							}
						}
					}
				}
			}
		}
	}
}
MOTION
Frames:    4
Frame Time: 0.03333334
 3.047428	-0.010307	 0.074401	 72.814000	-2.366592	-1.106612	 7.231642	 19.855640	-176.746300	-3.574286	-11.633630	 1.463430	 3.433794	 84.239960	-0.130451	-2.309673	 38.940090	-0.247580	 4.749524	-35.545440	-178.039000	 1.824747	-44.929800	 5.675214	 103.731100	 89.871800	-97.737900	 2.372988	 30.728090	 0.051451	 28.206440	 3.715160	 2.426382	-9.931998	-0.822573	 0.363767	-11.729980	-2.920985	-1.570022	-91.776180	 78.527420	-180.000000	 35.567090	 60.629910	-53.527530	-30.742140	 17.791480	-44.616380	 57.823820	-15.593540	 12.050620	-3.812334	 37.924440	-2.927599	-2.450526	 36.184240	 0.754587	-1.378229	 35.397820	-2.634230	 1.212874	 2.146399	-4.946087	-1.642506	-9.453077	 2.809321	 89.782120	 78.203870	 180.000000	-38.203390	 71.864650	 35.731680	 26.072270	 10.722900	 33.025260	-67.087200	-19.655760	-10.428680	 6.437017	 35.671460	-0.771858	 2.830251	 35.756010	-7.813440	-2.350882	 35.473990	 5.254307
 3.067165	-0.017091	 0.073709	 72.995640	-2.178894	-1.201822	 7.309722	 20.667300	-176.857700	-3.555843	-11.631030	 1.484291	 3.677346	 84.394330	-0.287026	-2.299101	 39.909100	-0.273195	 5.111730	-35.774680	-177.748900	 0.807284	-42.334670	 4.841159	 121.030800	 89.793460	-115.347800	 2.369877	 31.273450	 0.063700	 27.035560	 3.577140	 2.375857	-9.952912	-0.895826	 0.334620	-11.747280	-2.989041	-1.589020	-91.776180	 78.527400	-180.000000	 35.726880	 60.528140	-53.882160	-29.727880	 16.792080	-44.950980	 57.829620	-14.855300	 11.141380	-3.812334	 37.924440	-2.927599	-2.450526	 36.184240	 0.754587	-1.378229	 35.397820	-2.634230	 1.222649	 2.172694	-4.959477	-1.625336	-9.564042	 2.985585	 89.782100	 78.203870	-180.000000	-37.724920	 72.183730	 35.155500	 25.235700	 9.600335	 32.388710	-67.344080	-18.909380	-9.516640	 6.437017	 35.671460	-0.771858	 2.830251	 35.756010	-7.813440	-2.350882	 35.473990	 5.254307
 3.091245	-0.025329	 0.072743	 73.225410	-2.014473	-1.276617	 7.384591	 21.716380	-177.001200	-3.481420	-11.627030	 1.515447	 4.002651	 84.431970	-0.469372	-2.283384	 41.239830	-0.309375	 5.266694	-36.058760	-177.540400	 0.060388	-39.954620	 4.134528	 145.383200	 89.597980	-140.006100	 2.365270	 32.033820	 0.080973	 25.492500	 3.459298	 2.270941	-9.986970	-0.979789	 0.282483	-11.757080	-3.079030	-1.620268	-91.776180	 78.527400	-180.000000	 36.115340	 60.520150	-54.463710	-28.595170	 15.514330	-45.113450	 57.691330	-14.004940	 9.982674	-3.812334	 37.924440	-2.927599	-2.450526	 36.184240	 0.754587	-1.378229	 35.397820	-2.634230	 1.226580	 2.165228	-4.978339	-1.607402	-9.647090	 3.233631	 89.782120	 78.203870	 180.000000	-37.106190	 72.539060	 34.442100	 24.168910	 8.276172	 31.559610	-67.509000	-18.058880	-8.372984	 6.437017	 35.671460	-0.771858	 2.830251	 35.756010	-7.813440	-2.350882	 35.473990	 5.254307
 3.116984	-0.034242	 0.071865	 73.477870	-1.899950	-1.313697	 7.497844	 22.852510	-177.278500	-3.333354	-11.621580	 1.556986	 4.381743	 84.294330	-0.644562	-2.261709	 42.898850	-0.356268	 5.182312	-36.071230	-177.447800	-0.217478	-38.404850	 3.733625	 152.443800	 89.405870	-147.242900	 2.361334	 32.646610	 0.095041	 23.746920	 3.390156	 2.135453	-10.027530	-1.051063	 0.208069	-11.754060	-3.160254	-1.657316	-91.776180	 78.527400	 180.000000	 36.571530	 60.661800	-54.912140	-27.490070	 14.100900	-45.006970	 57.417260	-13.176100	 8.766232	-3.812334	 37.924440	-2.927599	-2.450526	 36.184240	 0.754587	-1.378229	 35.397820	-2.634230	 1.231574	 2.115952	-5.007401	-1.584948	-9.684945	 3.504729	 89.782090	 78.203830	-180.000000	-36.474860	 72.867770	 33.734270	 22.985110	 6.943248	 30.641560	-67.505680	-17.223560	-7.155564	 6.437017	 35.671460	-0.771858	 2.830251	 35.756010	-7.813440	-2.350882	 35.473990	 5.254307
